<?xml version="1.0" standalone="no"?>
<!DOCTYPE svg PUBLIC "-//W3C//DTD SVG 20010904//EN"
 "http://www.w3.org/TR/2001/REC-SVG-20010904/DTD/svg10.dtd">
<svg version="1.0" xmlns="http://www.w3.org/2000/svg"
 width="361.000000pt" height="332.000000pt" viewBox="0 0 361.000000 332.000000"
 preserveAspectRatio="xMidYMid meet">

<g transform="translate(0.000000,332.000000) scale(0.100000,-0.100000)"
fill="#000000" stroke="none">
<path d="M1700 3279 c-375 -58 -700 -223 -940 -476 -150 -158 -236 -287 -318
-473 -39 -89 -112 -325 -112 -360 0 -9 -65 -67 -145 -130 -80 -62 -145 -118
-145 -125 0 -7 63 -61 139 -120 133 -101 140 -109 146 -148 19 -127 80 -347
96 -347 5 0 6 -6 4 -12 -14 -36 213 -416 239 -401 5 3 6 1 2 -5 -8 -13 92
-129 171 -198 259 -227 558 -364 880 -405 132 -16 399 -6 521 20 641 140 1117
620 1253 1266 29 135 36 390 15 533 -85 576 -443 1037 -989 1276 -81 35 -254
83 -367 101 -103 16 -357 19 -450 4z m382 -1322 c7 -8 35 -86 63 -175 27 -88
52 -159 54 -156 8 7 8 235 1 275 -9 47 7 75 36 65 19 -6 20 -14 16 -224 -2
-119 -5 -223 -8 -230 -2 -8 -15 -12 -31 -10 -25 3 -29 12 -73 147 -25 80 -50
146 -56 148 -5 2 -8 -54 -6 -141 3 -128 2 -144 -13 -150 -29 -11 -45 12 -40
56 3 21 6 119 6 216 1 97 4 180 6 185 7 11 30 8 45 -6z m-440 -15 c22 -22 -8
-40 -57 -34 l-45 5 -2 -199 c-3 -191 -4 -199 -23 -199 -19 0 -20 7 -20 195 l0
195 -53 -3 c-40 -3 -53 0 -58 12 -13 34 11 41 130 40 72 0 121 -5 128 -12z
m248 -20 c45 -45 64 -102 64 -192 0 -90 -19 -147 -64 -192 -40 -41 -80 -49
-123 -26 -32 17 -43 30 -68 84 -34 73 -34 210 1 278 32 63 62 86 113 86 32 0
46 -7 77 -38z m665 3 c0 -18 -8 -20 -82 -23 l-83 -3 0 -75 0 -76 58 2 c82 3
84 3 80 -22 -3 -21 -9 -23 -70 -26 l-68 -3 0 -64 c0 -36 0 -68 0 -71 0 -4 36
-6 80 -5 65 2 81 -1 86 -13 13 -35 -13 -44 -114 -42 l-97 1 2 175 c1 96 2 197
2 223 l1 48 103 -3 c94 -3 102 -4 102 -23z"/>
<path d="M1772 1897 c-68 -81 -69 -246 -2 -320 25 -28 31 -30 56 -22 87 31
110 239 37 326 -27 31 -72 39 -91 16z"/>
</g>
</svg>
