<?xml version="1.0" standalone="no"?>
<!DOCTYPE svg PUBLIC "-//W3C//DTD SVG 20010904//EN"
 "http://www.w3.org/TR/2001/REC-SVG-20010904/DTD/svg10.dtd">
<svg version="1.0" xmlns="http://www.w3.org/2000/svg"
 width="724.000000pt" height="866.000000pt" viewBox="0 0 724.000000 866.000000"
 preserveAspectRatio="xMidYMid meet">

<g transform="translate(0.000000,866.000000) scale(0.100000,-0.100000)"
fill="#000000" stroke="none">
<path d="M2645 7595 c-443 -70 -851 -325 -1086 -680 -72 -109 -102 -163 -147
-265 -39 -89 -112 -325 -112 -360 0 -9 -65 -67 -145 -130 -80 -62 -145 -118
-145 -125 0 -7 63 -61 139 -120 133 -101 140 -109 146 -148 6 -38 25 -131 42
-197 3 -14 7 -31 9 -38 6 -33 39 -112 46 -112 4 0 5 -6 3 -12 -14 -36 213
-416 239 -401 5 3 6 1 2 -5 -8 -13 92 -129 171 -198 259 -227 558 -364 880
-405 137 -17 390 -7 523 21 638 135 1128 635 1255 1282 26 129 31 380 11 516
-104 706 -634 1252 -1334 1372 -133 23 -368 25 -497 5z m406 -1315 c10 -6 19
-16 19 -23 0 -22 94 -316 100 -311 3 3 5 81 5 172 0 140 2 167 15 169 34 6 36
-9 31 -237 l-6 -225 -29 0 c-29 0 -30 2 -76 144 -25 80 -50 146 -56 148 -5 2
-8 -52 -6 -135 3 -116 1 -140 -12 -151 -29 -24 -46 3 -41 62 3 28 6 126 6 217
1 91 4 168 6 173 6 10 21 9 44 -3z m-439 -18 c22 -22 -8 -40 -57 -34 l-45 5
-2 -199 c-3 -191 -4 -199 -23 -199 -19 0 -20 7 -20 195 l0 195 -53 -3 c-40 -3
-53 0 -58 12 -13 34 11 41 130 40 72 0 121 -5 128 -12z m248 -20 c45 -45 64
-102 64 -192 0 -90 -19 -147 -64 -192 -28 -28 -46 -38 -69 -38 -91 0 -144 85
-145 235 -1 77 3 97 24 139 32 63 62 86 113 86 32 0 46 -7 77 -38z m665 3 c0
-18 -8 -20 -82 -23 l-83 -3 0 -75 0 -76 58 2 c82 3 84 3 80 -22 -3 -21 -9 -23
-70 -26 l-68 -3 0 -64 c0 -36 0 -68 0 -71 0 -4 36 -6 80 -5 65 2 81 -1 86 -13
13 -35 -13 -44 -114 -43 l-97 2 2 175 c1 96 2 197 2 223 l1 48 103 -3 c94 -3
102 -4 102 -23z"/>
<path d="M2751 6223 c-7 -3 -24 -28 -37 -57 -41 -87 -29 -207 26 -269 25 -28
31 -30 56 -22 62 22 101 155 74 251 -23 80 -68 117 -119 97z"/>
</g>
</svg>
